<svg viewBox="0 0 32 32" fill="none" xmlns="http://www.w3.org/2000/svg">
  <path d="M25.6665 16.4163L25.6665 22.333C25.6665 25.6467 22.9802 28.333 19.6665 28.333L9.6665 28.333C6.3528 28.333 3.6665 25.6467 3.6665 22.333L3.6665 12.333C3.6665 9.0193 6.3528 6.33301 9.6665 6.33301L15.5832 6.33301" stroke="rgb(0,0,0)" stroke-opacity="0.4" stroke-linecap="round" stroke-linejoin="round" stroke-width="1.8"/>
  <path d="M5.40421 14.1679C5.40421 15.6602 4.19444 16.87 2.70211 16.87C1.20977 16.87 0 15.6602 0 14.1679L0 2.90172L2.70227 0L5.40421 2.90172L5.40421 14.1679Z" fill-rule="evenodd" stroke="rgb(0,0,0)" stroke-opacity="0.4" stroke-linecap="round" stroke-linejoin="round" stroke-width="1.8" transform="matrix(-0.707107,-0.707107,0.707107,-0.707107,14.999,21.2644)"/>
  <path d="M10.1536 19.5342L10.2039 19.69C10.5659 20.812 11.4454 21.6915 12.5675 22.0535L12.7232 22.1038C13.062 22.2131 13.062 22.6924 12.7232 22.8017L12.5675 22.8519C11.4454 23.214 10.5659 24.0935 10.2039 25.2155L10.1536 25.3713C10.0443 25.71 9.56504 25.71 9.45574 25.3713L9.40547 25.2155C9.04343 24.0935 8.16394 23.214 7.04191 22.8519L6.88615 22.8017C6.54738 22.6924 6.54738 22.2131 6.88615 22.1038L7.04191 22.0535C8.16394 21.6915 9.04343 20.812 9.40547 19.69L9.45574 19.5342C9.56504 19.1954 10.0443 19.1954 10.1536 19.5342Z" fill="rgb(0,0,0)" fill-opacity="0.4" fill-rule="evenodd"/>
</svg>
