<svg viewBox="0 0 16 16" xmlns="http://www.w3.org/2000/svg" xmlns:xlink="http://www.w3.org/1999/xlink" width="16.000000" height="16.000000" fill="none">
	<mask id="mask_1" width="16.000000" height="16.000000" x="0.000000" y="0.000000" maskUnits="userSpaceOnUse">
		<g filter="url(#pixso_custom_mask_type_outline)">
			<g id="clip568_5464">
				<rect id="矩形 544713" width="16.000000" height="16.000000" x="0.000000" y="0.000000" fill="rgb(255,255,255)" />
			</g>
		</g>
	</mask>
	<defs>
		<filter id="pixso_custom_mask_type_outline">
			<feColorMatrix type="matrix" values="0 0 0 0 1 0 0 0 0 1 0 0 0 0 1 0 0 0 1 0 " />
		</filter>
	</defs>
	<mask id="mask_0" width="16.000000" height="16.000000" x="0.000000" y="0.000000" maskUnits="userSpaceOnUse">
		<g filter="url(#pixso_custom_mask_type_outline)">
			<g id="clip568_5463">
				<rect id="矩形 544714" width="16.000000" height="16.000000" x="0.000000" y="0.000000" fill="rgb(255,255,255)" />
			</g>
		</g>
	</mask>
	<rect id="ic_public_briefcase" width="16.000000" height="16.000000" x="0.000000" y="0.000000" />
	<rect id="矩形 544712" width="16.000000" height="16.000000" x="0.000000" y="0.000000" fill="rgb(255,255,255)" fill-opacity="0" />
	<g id="clip path group" mask="url(#mask_0)">
		<g id="组合 91335048">
			<g id="clip path group" mask="url(#mask_1)">
				<g id="组合 91335050">
					<path id="矢量 8961" d="M3.32759e-05 7.99334C3.32759e-05 6.74334 -0.00663339 5.49334 3.32759e-05 4.24334C-0.00663339 3.63667 0.0733666 3.03334 0.220033 2.45C0.550033 1.21 1.3567 0.473336 2.5967 0.183336C3.2167 0.0533359 3.85337 -0.00999748 4.4867 2.52319e-06C6.88337 2.52319e-06 9.28003 2.52319e-06 11.68 2.52319e-06C12.2834 -0.00333081 12.8867 0.0633359 13.4767 0.206669C14.7534 0.516669 15.52 1.32667 15.81 2.6C15.9434 3.2 16.0034 3.81334 15.9967 4.43C15.9967 6.85334 15.9967 9.27667 15.9967 11.6967C16 12.2967 15.9334 12.8933 15.7934 13.4767C15.48 14.7567 14.6667 15.5167 13.3967 15.81C12.7734 15.9433 12.1367 16.0067 11.5 15.9967C9.1167 15.9967 6.73003 15.9967 4.34337 15.9967C3.73337 16.0033 3.1267 15.9333 2.53337 15.7933C1.25003 15.4833 0.480033 14.67 0.190033 13.3867C0.0367 12.74 3.32759e-05 12.09 3.32759e-05 11.4333C3.32759e-05 10.2867 3.32759e-05 9.14 3.32759e-05 7.99334Z" fill="rgb(255,255,255)" fill-opacity="0" fill-rule="evenodd" />
					<circle id="椭圆 3874" cx="8" cy="8" r="8" fill="rgb(255,255,255)" fill-opacity="0" />
				</g>
			</g>
			<path id="椭圆 3884" d="M2.54854 1.49831C2.53193 1.41713 2.52321 1.33308 2.52321 1.24699C2.52321 1.07482 2.5581 0.910795 2.6212 0.761607C2.6843 0.612419 2.77561 0.478066 2.88844 0.365236C3.00127 0.252405 3.13562 0.161096 3.28481 0.0979949C3.434 0.0348936 3.59802 0 3.7702 0C3.94237 0 4.1064 0.0348936 4.25558 0.0979948C4.40477 0.161096 4.53912 0.252405 4.65196 0.365236C4.76479 0.478066 4.85609 0.612419 4.9192 0.761607C4.9823 0.910795 5.01719 1.07482 5.01719 1.24699C5.01719 1.41917 4.9823 1.58319 4.9192 1.73238C4.85609 1.88157 4.76479 2.01592 4.65196 2.12875C4.59623 2.18448 4.12927 2.7505 2.99865 3.08204C1.84014 3.42176 0.0177864 3.52649 0 3.5262" stroke="rgb(0,0,0)" stroke-linecap="round" stroke-width="1.000000" transform="matrix(0.999775,0.0211892,-0.0211892,0.999775,2.33533,0.650879)" />
			<path id="矢量 38654" d="M10.1209 1.38488C10.1888 1.09911 10.5996 1.06339 10.6782 1.34916C10.8032 1.78855 11.1712 2.18149 11.6141 2.29223C11.907 2.36724 11.907 2.77805 11.6141 2.84949C11.1604 2.96738 10.7961 3.33174 10.6782 3.79256C10.6067 4.08191 10.1959 4.08191 10.1281 3.79256C10.0102 3.33174 9.64581 2.96738 9.18857 2.84949C8.89922 2.77805 8.89922 2.36724 9.18857 2.29223C9.64224 2.17792 9.99946 1.82784 10.1209 1.38488Z" fill="rgb(25,25,25)" fill-rule="evenodd" />
			<path id="矢量 9017" d="M12.4981 6.61653C12.4981 6.12893 12.1051 5.73364 11.6204 5.73364L1.57593 5.73364C1.14506 5.73364 0.795776 6.08501 0.795776 6.51844L0.795776 9.26521C0.795776 12.5159 3.41543 15.1512 6.64693 15.1512C9.87843 15.1512 12.4981 12.5159 12.4981 9.26521L12.4981 7.49943L12.4981 6.61653Z" fill-rule="nonzero" stroke="rgb(0,0,0)" stroke-linecap="round" stroke-width="1.000000" />
			<path id="矩形 544745" d="M12.4979 7.61011L13.897 7.61011C14.6868 7.61011 15.327 8.25036 15.327 9.04016L15.327 9.16955C15.327 9.88789 14.7447 10.4702 14.0264 10.4702" stroke="rgb(0,0,0)" stroke-linecap="round" stroke-width="1.000000" />
			<path id="矢量 8966" d="M12.1667 3.66667L10.8334 3.66667L10.8334 1.66667C10.8334 1.62 10.8234 1.58 10.81 1.54C10.7934 1.50333 10.77 1.47 10.74 1.43667C10.71 1.40333 10.6767 1.38 10.6367 1.36C10.6034 1.34667 10.5667 1.33667 10.5267 1.33333L10.49 1.33333L5.50004 1.33333C5.47004 1.33333 5.44004 1.33667 5.41337 1.34333C5.40004 1.34667 5.38337 1.35 5.37004 1.35667C5.35337 1.36333 5.33671 1.37333 5.32004 1.38333C5.30004 1.39667 5.28004 1.41 5.26337 1.43C5.24337 1.44667 5.23004 1.46667 5.21671 1.48667C5.20671 1.50333 5.19671 1.52 5.19004 1.53667C5.18337 1.55 5.18004 1.56667 5.17671 1.58C5.17004 1.60667 5.16671 1.63667 5.16671 1.66667L5.16671 3.66667L3.83337 3.66667L3.83337 1.66667C3.83337 1.54333 3.84337 1.42333 3.87004 1.31C3.89004 1.21 3.92337 1.11333 3.96337 1.01667C4.00337 0.92 4.05004 0.83 4.10671 0.746667C4.17004 0.653333 4.24004 0.566667 4.32004 0.486667C4.40004 0.406667 4.48671 0.336667 4.58004 0.273333C4.66337 0.216667 4.75337 0.17 4.85004 0.13C4.94671 0.09 5.04337 0.0566667 5.14337 0.0366667C5.25671 0.01 5.37671 0 5.50004 0L10.5 0C10.62 0 10.74 0.01 10.8534 0.0366667C10.9534 0.0566667 11.0534 0.09 11.1467 0.13C11.2434 0.17 11.3334 0.216667 11.4167 0.273333C11.51 0.336667 11.5967 0.406667 11.6767 0.486667C11.7567 0.566667 11.8267 0.653333 11.89 0.746667C11.9467 0.83 11.9934 0.92 12.0334 1.01667C12.0734 1.11 12.1067 1.21 12.1267 1.31C12.1534 1.42333 12.1667 1.54333 12.1667 1.66667L12.1667 3.66667Z" fill="rgb(255,255,255)" fill-opacity="0" fill-rule="evenodd" />
			<path id="矢量 8967" d="M2.49988 2.83332L13.4999 2.83332C14.8806 2.83332 15.9999 3.9526 15.9999 5.33333L15.9999 7.16666L-0.00012207 7.16666L-0.00012207 8.16666L6.16656 8.16666L6.16656 10C6.16656 10.134 6.18055 10.2648 6.20853 10.3926C6.23229 10.502 6.26649 10.6089 6.31076 10.7137C6.40369 10.9331 6.53456 11.1274 6.70349 11.2964C6.79186 11.3846 6.88693 11.4626 6.98896 11.5301C7.08223 11.5918 7.18136 11.6447 7.28616 11.6891C7.39086 11.7334 7.49779 11.7675 7.60696 11.7913C7.73473 11.8193 7.86593 11.8333 7.99989 11.8333C8.13265 11.8333 8.2624 11.8196 8.38916 11.7921C8.39027 11.7918 8.39137 11.7916 8.39246 11.7913C8.50183 11.7676 8.60876 11.7334 8.71359 11.6891C8.81839 11.6447 8.91753 11.5918 9.01079 11.5301C9.11279 11.4626 9.20793 11.3847 9.29626 11.2964C9.38449 11.208 9.46246 11.113 9.52999 11.0109C9.59166 10.9176 9.64456 10.8185 9.68899 10.7137C9.73329 10.6089 9.76746 10.5018 9.79123 10.3926C9.81923 10.2648 9.83323 10.134 9.83323 10L9.83323 8.16666L15.9999 8.16666L15.9999 13.3333C15.9999 14.714 14.8806 15.8333 13.4999 15.8333L2.49988 15.8333C1.11918 15.8333 -0.00012207 14.714 -0.00012207 13.3333L-0.00012207 5.33333C-0.00012207 3.9526 1.11918 2.83332 2.49988 2.83332ZM7.16656 8.16666L8.83323 8.16666L8.83323 10C8.83323 10.0664 8.82573 10.1309 8.81076 10.1937C8.80016 10.2381 8.78603 10.2816 8.76796 10.3242C8.74889 10.3691 8.72643 10.4118 8.70023 10.452C8.66849 10.5011 8.63139 10.5469 8.58906 10.5892C8.54676 10.6315 8.50103 10.6686 8.45186 10.7004C8.41166 10.7266 8.36903 10.749 8.32409 10.7681C8.28146 10.7861 8.23799 10.8003 8.19356 10.8109C8.13073 10.8259 8.06616 10.8333 7.99989 10.8333C7.93346 10.8333 7.86903 10.8259 7.80619 10.8109C7.76179 10.8004 7.71829 10.7861 7.67566 10.7681C7.63073 10.749 7.58809 10.7266 7.54789 10.7004C7.49873 10.6686 7.45299 10.6315 7.41069 10.5892C7.33353 10.5122 7.27396 10.4238 7.23183 10.3242C7.18836 10.2214 7.16656 10.1133 7.16656 10L7.16656 8.16666Z" fill="rgb(255,255,255)" fill-opacity="0" fill-rule="evenodd" />
			<path id="矢量 8968" d="M9.83333 8.16666L16 8.16666L16 7.16666L0 7.16666L0 8.16666L6.16667 8.16666L6.16667 10C6.16667 10.1333 6.18 10.2633 6.20667 10.39C6.23 10.5 6.26333 10.6067 6.31 10.7133C6.40333 10.93 6.53333 11.1267 6.70333 11.2933C6.79 11.3833 6.88667 11.46 6.98667 11.53C7.08 11.59 7.18 11.6433 7.28333 11.6867C7.39 11.7333 7.49667 11.7667 7.60667 11.79C7.73333 11.8167 7.86333 11.8333 8 11.8333C8.13333 11.8333 8.26333 11.8167 8.39 11.79C8.5 11.7667 8.60667 11.7333 8.71333 11.6867C8.81667 11.6433 8.91667 11.59 9.01 11.53C9.11 11.46 9.20667 11.3833 9.29333 11.2933C9.38333 11.2067 9.46 11.11 9.53 11.01C9.59 10.9167 9.64333 10.8167 9.68667 10.7133C9.73333 10.6067 9.76667 10.5 9.79 10.39C9.81667 10.2633 9.83333 10.1333 9.83333 10L9.83333 8.16666ZM8.83333 8.16666L7.16667 8.16666L7.16667 10C7.16667 10.11 7.18667 10.22 7.23 10.3233C7.27333 10.4233 7.33333 10.51 7.41 10.5867C7.45 10.63 7.49667 10.6667 7.54667 10.7C7.58667 10.7233 7.63 10.7467 7.67333 10.7667C7.71667 10.7833 7.76 10.8 7.80333 10.81C7.86667 10.8233 7.93333 10.8333 8 10.8333C8.06333 10.8333 8.13 10.8233 8.19333 10.81C8.23667 10.8 8.28 10.7833 8.32333 10.7667C8.36667 10.7467 8.41 10.7233 8.45 10.7C8.5 10.6667 8.54667 10.63 8.58667 10.5867C8.63 10.5467 8.66667 10.5 8.7 10.45C8.72333 10.41 8.74667 10.3667 8.76667 10.3233C8.78333 10.28 8.8 10.2367 8.81 10.1933C8.82333 10.13 8.83333 10.0633 8.83333 10L8.83333 8.16666Z" fill="rgb(255,255,255)" fill-opacity="0" fill-rule="evenodd" />
		</g>
	</g>
	<line id="直线 67" x1="0" x2="15.4731398" y1="0" y2="0" stroke="rgb(0,0,0)" stroke-opacity="0" stroke-width="1.000000" transform="matrix(0.965926,-0.258819,0.258819,0.965926,0.380859,11.2698)" />
</svg>
